<?xml version="1.0" encoding="UTF-8"?>
<svg id="Warstwa_1" data-name="Warstwa 1" xmlns="http://www.w3.org/2000/svg" viewBox="0 0 607.33 470.81">
  <g>
    <path d="M400.99,161.29v19.33h10.01v3.78h-14.55v-23.11h4.54Z"/>
    <path d="M427.93,161.29l7.86,23.11h-4.61l-1.42-4.82h-8.14l-1.46,4.82h-4.54l7.8-23.11h4.5ZM425.68,166.38l-2.95,9.42h5.92l-2.98-9.42Z"/>
    <path d="M453.65,161.29v3.78h-6.1v19.33h-4.43v-19.33h-6.1v-3.78h16.63Z"/>
  </g>
  <path d="M345.6,245c-1.27.02-4.03-.01-4.03-.01h0c-2.62-.04-4.88-.62-7.34-1.5-14.61-5.23-25.96-17.37-32.64-35.19h-15.55c4.95,15.21,12.55,27.62,22.59,36.5h-103.79l56.46-58.02c17.17-17.41,31.94-35.95,33.93-56.65h0c7.35-29.64,25.06-46.19,50.33-46.19s42.98,16.56,50.32,46.19h14.29c-8.25-36.62-30.6-59.46-64.61-59.46-24.63,0-43.14,11.98-54.62,32.49-8.64-19.61-28.72-30.09-49.68-30.09-19.24,0-35.97,7.92-48.04,22.39-6.76,8.11-12.08,24.07-13.47,34.54l13.8.13c3.25-16.8,12.42-43.64,47.71-43.79,22.12-.09,40.07,14.05,40.07,39.03,0,1.38-.09,2.76-.24,4.13-.05.21-.1.42-.15.63h.07c-2.11,16.24-14.62,31.82-29.09,46.76l-66.87,68.69v12.49h152.37c3.43.16,5.91-.19,8.89-.17,35.19.22,52.1-17.79,61.49-49.69h-14.63c-8.6,23.39-24.13,36.47-47.59,36.79Z"/>
  <g>
    <path d="M91.18,314.97c12.27,0,18.45.99,23.99,3.95,10.31,5.6,16.83,18.11,16.83,32.59s-6.08,26.78-16.17,32.37c-6.08,3.51-11.07,4.28-26.16,4.28h-13.13v-73.2h14.65ZM93.57,378.4c9.44,0,13.13-.77,17.26-3.51,6.08-4.06,9.55-12.62,9.55-23.38s-3.69-19.42-10.31-23.48c-4.34-2.74-7.38-3.29-19.21-3.29h-3.15v53.66h5.86Z"/>
    <path d="M152.64,336.04v30.73c0,4.61.54,7.79,1.74,9.44,1.63,2.31,4.56,3.62,7.92,3.62,4.13,0,7.49-1.87,9.44-5.38,1.3-2.31,1.84-5.16,1.84-9.77v-28.64h10.64v36.1q0,11.74,1.3,16.02h-10.2c-.54-1.54-.98-3.95-1.09-6.48-3.47,5.38-7.6,7.68-14.11,7.68-6.84,0-12.48-2.96-15.52-7.9-1.85-3.07-2.61-7.35-2.61-14.38v-31.06h10.64Z"/>
    <path d="M239.4,372.15c0,9.11.22,12.51.98,16.02h-10.1c-.54-2.19-.65-3.4-.65-5.05,0-.66,0-1.21.11-2.31-3.47,6.04-7.71,8.56-14.55,8.56-12.81,0-21.28-10.65-21.28-26.78s8.68-27.76,20.95-27.76c6.3,0,9.99,2.09,13.9,7.68v-27.98h10.64v57.61ZM204.88,362.38c0,11.08,4.56,17.89,11.94,17.89s12.16-7.02,12.16-18.22-4.56-18.11-11.83-18.11-12.27,6.91-12.27,18.44Z"/>
    <path d="M250.79,350.75c.65-5.27,2.17-8.34,5.21-11.08,3.69-3.07,9.34-4.83,15.85-4.83,8.69,0,14.87,2.96,17.04,8.12,1.3,2.96,1.63,5.71,1.63,12.29v20.3c0,7.02.33,9.55,1.63,12.62h-9.88c-.65-2.41-.87-3.62-.87-6.48-2.82,5.16-7.71,7.68-14.76,7.68-10.86,0-17.59-5.71-17.59-14.92,0-7.24,4.13-12.62,11.83-15.58,4.78-1.86,7.82-2.52,19.32-4.61v-1.43c0-6.69-2.5-9.22-9.01-9.22-5.86,0-9.12,2.31-10.1,7.13h-10.31ZM280.2,361.72c-14.98,2.31-20.19,5.27-20.19,11.52,0,4.5,3.58,7.57,8.79,7.57,4.34,0,8.03-1.98,9.88-5.49,1.08-1.98,1.52-4.83,1.52-9.55v-4.06Z"/>
    <path d="M328.19,356.56v8.01h-28.98v-8.01h28.98Z"/>
    <path d="M381.89,337.14c-1.74-9-6.84-13.61-14.98-13.61-11.72,0-19.11,10.86-19.11,28.09s7.38,27.98,19.32,27.98c9.12,0,14.44-5.93,15.52-17.56h10.21c-1.09,17.78-9.99,27.44-25.4,27.44-19.11,0-31.37-14.82-31.37-37.75,0-13.17,3.8-23.7,11.07-30.51,5.32-4.83,12.38-7.57,19.87-7.57,14.44,0,23.45,8.45,24.75,23.49h-9.88Z"/>
    <path d="M400.75,350.75c.65-5.27,2.17-8.34,5.21-11.08,3.69-3.07,9.34-4.83,15.85-4.83,8.69,0,14.87,2.96,17.04,8.12,1.3,2.96,1.63,5.71,1.63,12.29v20.3c0,7.02.33,9.55,1.63,12.62h-9.88c-.65-2.41-.87-3.62-.87-6.48-2.82,5.16-7.71,7.68-14.76,7.68-10.86,0-17.59-5.71-17.59-14.92,0-7.24,4.13-12.62,11.83-15.58,4.78-1.86,7.82-2.52,19.32-4.61v-1.43c0-6.69-2.5-9.22-9.01-9.22-5.86,0-9.12,2.31-10.1,7.13h-10.31ZM430.17,361.72c-14.98,2.31-20.19,5.27-20.19,11.52,0,4.5,3.58,7.57,8.79,7.57,4.34,0,8.03-1.98,9.88-5.49,1.08-1.98,1.52-4.83,1.52-9.55v-4.06Z"/>
    <path d="M462.42,336.04c.44,2.52.76,5.27.76,8.01,0,.77,0,1.65-.11,2.96,3.8-8.34,8.25-12.18,14.11-12.18,1.52,0,2.93.33,5.1,1.1v10.86c-2.93-1.65-4.99-2.3-7.49-2.3-4.13,0-7.38,2.52-9.34,7.13-1.3,2.96-1.85,6.91-1.85,12.73v23.81h-10.75v-35.23c0-11.3-.11-12.29-.65-16.9h10.2Z"/>
    <path d="M516.83,351.3c-.76-5.6-3.69-8.23-9.34-8.23-4.99,0-8.47,2.74-8.47,6.58s1.74,4.94,12.27,8.01c7.82,2.31,11.18,3.95,13.35,6.37,1.95,2.41,3.04,5.49,3.04,9.11,0,10.21-7.49,16.46-19.87,16.46-13.79,0-21.28-6.36-21.28-18.22h10.1c.54,6.7,4.02,9.77,10.86,9.77,5.86,0,9.44-2.85,9.44-7.24,0-2.3-.98-3.73-3.36-5.05-1.74-.88-3.04-1.32-11.18-3.84-5.65-1.65-8.58-3.18-10.64-5.27-2.17-2.3-3.37-5.6-3.37-9.11,0-9.55,7.82-16.02,19.32-16.02s18.78,6.04,19.43,16.68h-10.31Z"/>
  </g>
</svg>